<svg id="Layer_1" data-name="Layer 1" xmlns="http://www.w3.org/2000/svg" viewBox="0 0 256 256"><defs><style>.cls-1{fill:#333;}.cls-2{fill:#ccc;}.cls-3{fill:#fff;}.cls-4{fill:#f90;}</style></defs><title>icon</title><rect class="cls-1" x="-10" y="-10" width="276" height="276"/><path class="cls-2" d="M48.19,126.61V109.82l-5.34,11.81H38.17l-5.34-11.81v16.79H24.07V94.73h9.56l6.87,15,6.91-15h9.52v31.88Z"/><path class="cls-2" d="M70.68,94.73h8l11,31.88H80.83l-1.93-6.24H70.41l-1.89,6.24H59.59Zm6.83,19.8-2.83-9.88-3,9.88Z"/><path class="cls-2" d="M89.32,110.4a15.91,15.91,0,0,1,4.31-10.82,16.37,16.37,0,0,1,5.12-3.64,17.72,17.72,0,0,1,14.89.52,12.44,12.44,0,0,1,5.05,5.05L112,106.27a5.66,5.66,0,0,0-1.19-1.93,6.07,6.07,0,0,0-1.64-1.21,7,7,0,0,0-1.86-.63,10.24,10.24,0,0,0-1.86-.18,6.54,6.54,0,0,0-5.5,2.67,8.33,8.33,0,0,0-1.3,2.69,10.89,10.89,0,0,0-.43,3,10.27,10.27,0,0,0,.49,3.19,8.31,8.31,0,0,0,1.44,2.69,7,7,0,0,0,2.31,1.86,6.69,6.69,0,0,0,3.08.7,8.79,8.79,0,0,0,1.84-.2,6.84,6.84,0,0,0,1.82-.67,6.15,6.15,0,0,0,1.57-1.21,5.38,5.38,0,0,0,1.1-1.82l7.14,4.27a9.09,9.09,0,0,1-2.18,3.14,13.85,13.85,0,0,1-3.32,2.33,17.63,17.63,0,0,1-4,1.44,18.39,18.39,0,0,1-4.15.49,14.77,14.77,0,0,1-6.49-1.41,16.45,16.45,0,0,1-5.07-3.75,17,17,0,0,1-3.3-5.3A16.29,16.29,0,0,1,89.32,110.4Z"/><path class="cls-2" d="M150.29,94.73v31.88h-8.76V114.13H130.85v12.48H122.1V94.73h8.76v11.76h10.69V94.73Z"/><path class="cls-2" d="M178.49,119v7.63H155.77V94.73h22.32v7.63H164.53v4.49h11.59v7.09H164.53v5Z"/><path class="cls-2" d="M207.41,102.36h-9.16v24.25H189.5V102.36h-9.21V94.73h27.12Z"/><path class="cls-2" d="M233.32,119v7.63H210.6V94.73h22.32v7.63H219.36v4.49h11.59v7.09H219.36v5Z"/><path class="cls-3" d="M109.56,133.51c-.17-.31-.57-.87-.57-.87s124.66,0,124.87,0c1.4,0-6.35,12.56-7.46,14.05-19.58,25-49.78,22.8-77.81,18.17s-21-5.9-38.49-5.88C113.12,150.53,112.88,140,109.56,133.51Z"/><path class="cls-4" d="M39.59,131.73c10-.14,60.92.12,60.92.12a4,4,0,0,1,2.55.75,12.8,12.8,0,0,1,2.83,3.5c3,5.76,3.1,15.73-1.62,23.11a15.64,15.64,0,0,1-1,1.32c-6.47,5.63-8.44-4.59-8.44-4.59s-1.67-4.19-11.06-1.39-18.9,1.84-27.86-.65a51.9,51.9,0,0,0-7.6-1.18c-2.12,0-4.47.32-8.08,5.13s-7,6.13-10.44,5.41-8.07-12.08-6.86-19.7S29.62,131.89,39.59,131.73Zm50.51,6.66a6,6,0,0,0,8.56,8.31,6,6,0,0,0-8.56-8.31Zm-26.78.41a6,6,0,0,0,.15,8.45,6,6,0,1,0-.15-8.45Zm-30.18.44a6,6,0,1,0,8.45-.11A6,6,0,0,0,33.15,139.25Z"/></svg>